<svg xmlns="http://www.w3.org/2000/svg" viewBox="0 0 200 80">
  <defs>
    <linearGradient id="grad1" x1="0%" y1="0%" x2="100%" y2="0%">
      <stop offset="0%" style="stop-color:#1a56db;stop-opacity:1" />
      <stop offset="50%" style="stop-color:#2563eb;stop-opacity:1" />
      <stop offset="100%" style="stop-color:#0d9488;stop-opacity:1" />
    </linearGradient>
  </defs>
  <rect x="0" y="10" width="45" height="55" fill="none"/>
  <g transform="translate(0,55)">
    <rect x="5" y="-50" width="3" height="50" fill="url(#grad1)" opacity="0.9"/>
    <rect x="10" y="-50" width="3" height="50" fill="url(#grad1)" opacity="0.85"/>
    <rect x="15" y="-50" width="3" height="50" fill="url(#grad1)" opacity="0.8"/>
    <rect x="20" y="-50" width="3" height="50" fill="url(#grad1)" opacity="0.75"/>
    <rect x="25" y="-50" width="3" height="50" fill="url(#grad1)" opacity="0.7"/>
    <rect x="30" y="-50" width="3" height="50" fill="url(#grad1)" opacity="0.65"/>
    <rect x="35" y="-50" width="3" height="50" fill="url(#grad1)" opacity="0.6"/>
    <rect x="40" y="-50" width="3" height="50" fill="url(#grad1)" opacity="0.55"/>
  </g>
  <g transform="translate(55,55)">
    <rect x="5" y="-50" width="3" height="50" fill="url(#grad1)" opacity="0.9"/>
    <rect x="10" y="-50" width="3" height="50" fill="url(#grad1)" opacity="0.85"/>
    <rect x="15" y="-50" width="3" height="50" fill="url(#grad1)" opacity="0.8"/>
    <rect x="20" y="-50" width="3" height="50" fill="url(#grad1)" opacity="0.75"/>
    <rect x="25" y="-50" width="3" height="50" fill="url(#grad1)" opacity="0.7"/>
    <rect x="30" y="-50" width="3" height="50" fill="url(#grad1)" opacity="0.65"/>
    <rect x="35" y="-50" width="3" height="50" fill="url(#grad1)" opacity="0.6"/>
    <rect x="40" y="-50" width="3" height="50" fill="url(#grad1)" opacity="0.55"/>
  </g>
  <g transform="translate(110,55)">
    <rect x="5" y="-50" width="3" height="50" fill="url(#grad1)" opacity="0.9"/>
    <rect x="10" y="-50" width="3" height="50" fill="url(#grad1)" opacity="0.85"/>
    <rect x="15" y="-50" width="3" height="50" fill="url(#grad1)" opacity="0.8"/>
    <rect x="20" y="-50" width="3" height="50" fill="url(#grad1)" opacity="0.75"/>
    <rect x="25" y="-50" width="3" height="50" fill="url(#grad1)" opacity="0.7"/>
    <rect x="30" y="-50" width="3" height="50" fill="url(#grad1)" opacity="0.65"/>
    <rect x="35" y="-50" width="3" height="50" fill="url(#grad1)" opacity="0.6"/>
    <rect x="40" y="-50" width="3" height="50" fill="url(#grad1)" opacity="0.55"/>
  </g>
  <g transform="translate(150,55)">
    <rect x="5" y="-50" width="3" height="50" fill="url(#grad1)" opacity="0.9"/>
    <rect x="10" y="-50" width="3" height="50" fill="url(#grad1)" opacity="0.85"/>
    <rect x="15" y="-50" width="3" height="50" fill="url(#grad1)" opacity="0.8"/>
    <rect x="20" y="-50" width="3" height="50" fill="url(#grad1)" opacity="0.75"/>
    <rect x="25" y="-50" width="3" height="50" fill="url(#grad1)" opacity="0.7"/>
    <rect x="30" y="-50" width="3" height="50" fill="url(#grad1)" opacity="0.65"/>
    <rect x="35" y="-50" width="3" height="50" fill="url(#grad1)" opacity="0.6"/>
    <rect x="40" y="-50" width="3" height="50" fill="url(#grad1)" opacity="0.55"/>
  </g>
  <text x="25" y="25" font-family="Arial,sans-serif" font-size="45" font-weight="bold" fill="#1a56db">s</text>
  <text x="80" y="25" font-family="Arial,sans-serif" font-size="45" font-weight="bold" fill="#2563eb">u</text>
  <text x="135" y="25" font-family="Arial,sans-serif" font-size="45" font-weight="bold" fill="#0ea5e9">z</text>
  <text x="175" y="25" font-family="Arial,sans-serif" font-size="45" font-weight="bold" fill="#0d9488">m</text>
</svg>